<svg width="111" height="27" viewBox="0 0 111 27" fill="none" xmlns="http://www.w3.org/2000/svg">
<path d="M77.975 22.9214V15.7193C77.9747 15.2676 77.8908 14.8203 77.7278 14.4041C77.5651 13.9878 77.3264 13.6109 77.0261 13.2955L69.2981 5.17999C68.7116 4.56436 67.9254 4.21985 67.1068 4.21985C66.2878 4.21985 65.5016 4.56436 64.9152 5.17999L57.1874 13.2955C56.8871 13.6108 56.6484 13.9877 56.4854 14.404C56.3227 14.8203 56.2388 15.2675 56.2388 15.7193V22.9214C56.2385 23.3656 56.3197 23.8057 56.4775 24.2164C56.6353 24.6272 56.8664 25.0002 57.158 25.3145C57.4496 25.6287 57.7959 25.8782 58.1769 26.0483C58.5579 26.2185 58.9661 26.3058 59.3784 26.3058H74.8353C75.2477 26.3058 75.6562 26.2182 76.0369 26.048C76.4178 25.8782 76.7639 25.6287 77.0555 25.3145C77.3471 25.0002 77.5785 24.6269 77.736 24.2164C77.8938 23.8057 77.975 23.3656 77.975 22.9214Z" fill="#8412FF"/>
<path d="M75.4223 7.60008C75.4223 7.82268 75.361 8.04023 75.2463 8.22528C75.1316 8.41032 74.9683 8.55451 74.7776 8.63965C74.5865 8.72479 74.3767 8.74704 74.1742 8.70356C73.9715 8.6601 73.7856 8.55288 73.6395 8.39546C73.4935 8.23805 73.394 8.03752 73.3539 7.81919C73.3136 7.60089 73.3343 7.37461 73.4134 7.16897C73.4924 6.96334 73.6262 6.78758 73.7979 6.66395C73.9696 6.54029 74.1715 6.47427 74.3781 6.47427C74.5151 6.47427 74.6511 6.5034 74.7778 6.55999C74.9046 6.61656 75.0196 6.6995 75.1166 6.80404C75.2136 6.9086 75.2905 7.0327 75.343 7.1693C75.3954 7.30588 75.4223 7.45226 75.4223 7.60008Z" fill="#F7635E"/>
<path d="M48.0921 8.7768C50.0761 8.7768 51.5528 9.3932 52.5227 10.6261C53.5144 11.8365 54.0104 13.6745 54.0104 16.1402V26.328H48.0262V16.4092C48.0262 15.3557 47.8499 14.6048 47.4972 14.1565C47.1443 13.6857 46.5933 13.4504 45.8439 13.4504C44.9402 13.4504 44.2129 13.7642 43.6618 14.3918C43.1108 14.997 42.8353 15.804 42.8353 16.8127V26.328H36.8511V1.58148H42.8353V11.3321C44.1357 9.62857 45.888 8.7768 48.0921 8.7768Z" fill="#8412FF"/>
<path d="M12.605 21.6879C13.0017 21.6879 13.5307 21.6208 14.192 21.4864V26.0927C13.3764 26.4288 12.3405 26.597 11.0841 26.597C8.81379 26.597 7.08352 25.9469 5.89325 24.6468C4.72505 23.3468 4.14093 21.5424 4.14093 19.2335V13.7193H1V9.24748H4.14093V5.38085L10.1253 3.43073V9.24748H14.1589V13.7193H10.1253V19.2335C10.1253 20.0404 10.3567 20.6569 10.8196 21.0829C11.3045 21.4864 11.8996 21.6879 12.605 21.6879ZM33.3358 9.24748V26.3279H27.4836V24.0416C26.4036 25.7451 24.8056 26.597 22.6896 26.597C20.5515 26.597 18.9535 25.9918 17.8955 24.7812C16.8595 23.571 16.3415 21.7217 16.3415 19.2335V9.24748H22.3259V19.4016C22.3259 21.0829 23.0422 21.9234 24.4749 21.9234C25.3125 21.9234 25.9848 21.6208 26.4917 21.0155C27.0208 20.4103 27.2853 19.6033 27.2853 18.5947V9.24748H33.3358Z" fill="#1C1C1C"/>
<path d="M92.0101 8.77677C93.4651 8.77677 94.7544 9.14661 95.8785 9.88631C97.0026 10.6036 97.8733 11.6347 98.4906 12.9796C99.1296 14.3246 99.4493 15.8712 99.4493 17.6196C99.4493 19.3904 99.1296 20.9595 98.4906 22.3269C97.8513 23.6716 96.9697 24.7253 95.8455 25.4874C94.7214 26.2271 93.443 26.597 92.0101 26.597C90.886 26.597 89.8611 26.3728 88.9353 25.9244C88.0096 25.4539 87.3155 24.8148 86.8525 24.008V26.3279H80.9342V1.58145H86.9187V11.2985C87.4035 10.5364 88.0979 9.93115 89.0015 9.48286C89.9052 9.01214 90.9081 8.77677 92.0101 8.77677ZM90.1919 22.0578C91.2498 22.0578 92.0543 21.6768 92.6053 20.9146C93.1784 20.1525 93.4651 19.0542 93.4651 17.6196C93.4651 16.2523 93.1896 15.21 92.6386 14.4927C92.0875 13.753 91.2719 13.3831 90.1919 13.3831C89.1116 13.3831 88.2851 13.753 87.712 14.4927C87.1392 15.2324 86.8525 16.2971 86.8525 17.6868C86.8525 19.1214 87.1392 20.2086 87.712 20.9482C88.2851 21.6879 89.1116 22.0578 90.1919 22.0578ZM102.244 9.24749H108.228V26.3279H102.244V9.24749ZM108.328 0.875366V6.35593H102.079V0.875366H108.328Z" fill="#8412FF"/>
<path d="M110.18 0H101.187V7.48268H110.18V0Z" fill="white"/>
<path d="M108.273 3.88084C108.272 4.48375 108.097 5.07305 107.767 5.57425C107.437 6.07545 106.969 6.46605 106.422 6.69662C105.874 6.92723 105.271 6.98745 104.69 6.86972C104.108 6.752 103.574 6.46158 103.155 6.03521C102.736 5.60884 102.45 5.06565 102.335 4.47432C102.219 3.883 102.279 3.27008 102.506 2.71309C102.732 2.1561 103.117 1.68004 103.61 1.34512C104.103 1.0102 104.682 0.831421 105.275 0.831421C105.669 0.831421 106.059 0.910294 106.422 1.06358C106.786 1.21683 107.117 1.44145 107.395 1.72463C107.673 2.00781 107.894 2.34398 108.045 2.71395C108.195 3.08393 108.273 3.48043 108.273 3.88084Z" fill="#8412FF"/>
</svg>
